# AST/ASF file generated using VICON BodyLanguage
# -----------------------------------------------
:version 1.10
:name VICON
:units
  mass 1.0
  length 0.45
  angle deg
:documentation
   .ast/.asf automatically generated from VICON data using
   VICON BodyBuilder and BodyLanguage model FoxedUp or BRILLIANT.MOD
:root
   order TX TY TZ RX RY RZ
   axis XYZ
   position 0 0 0  
   orientation 0 -0 0 
:bonedata
  begin
     id 1 
     name lhipjoint
     direction 0.500677 -0.737119 0.453848 
     length 2.34727 
     axis 0 -0 0  XYZ
  end
  begin
     id 2 
     name lfemur
     direction 0.34202 -0.939693 0  
     length 7.53653  
     axis 0 -0 20  XYZ
    dof rx ry rz
    limits (-160.0 20.0)
           (-70.0 70.0)
           (-60.0 70.0)
  end
  begin
     id 3 
     name ltibia
     direction 0.34202 -0.939693 0   
     length 6.85572   
     axis 0 -0 20   XYZ
    dof rx
    limits (-10.0 170.0)
  end
  begin
     id 4 
     name lfoot
     direction 0.155313 -0.426718 0.890949   
     length 2.18324   
     axis -90 -1.13533e-015 20   XYZ
    dof rx rz
    limits (-45.0 90.0)
           (-70.0 20.0)
  end
  begin
     id 5 
     name ltoes
     direction 1.53474e-011 -4.21647e-011 1   
     length 1.06748   
     axis -90 -1.13533e-015 20   XYZ
    dof rx
    limits (-90.0 20.0)
  end
  begin
     id 6 
     name rhipjoint
     direction -0.632471 -0.659587 0.406111   
     length 2.62319  
     axis 0 -0 0  XYZ 
  end
  begin
     id 7 
     name rfemur
     direction -0.34202 -0.939693 0   
     length 7.21735   
     axis 0 -0 -20   XYZ
    dof rx ry rz
    limits (-160.0 20.0)
           (-70.0 70.0)
           (-70.0 60.0)
  end
  begin
     id 8 
     name rtibia
     direction -0.34202 -0.939693 0   
     length 7.02558   
     axis 0 -0 -20   XYZ
    dof rx
    limits (-10.0 170.0)
 end
 begin
     id 9 
     name rfoot
     direction -0.16057 -0.441164 0.882945   
     length 2.10014  
     axis -90 1.13533e-015 -20   XYZ
    dof rx rz
    limits (-45.0 90.0)
           (-20.0 70.0)
  end
  begin
     id 10 
     name rtoes
     direction -1.53553e-011 -4.2192e-011 1   
     length 1.02554   
     axis -90 1.13533e-015 -20   XYZ
    dof rx
    limits (-90.0 20.0)
  end
  begin
     id 11 
     name lowerback
     direction 0.0401429 0.998861 -0.0258085   
     length 1.80848   
     axis 0 -0 0   XYZ
    dof rx ry rz
    limits (-20.0 45.0)
           (-30.0 30.0)
           (-30.0 30.0)
  end
  begin
     id 12 
     name upperback
     direction -0.0130978 0.999914 -0.000352645   
     length 1.8116   
     axis 0 -0 0   XYZ
    dof rx ry rz
    limits (-20.0 45.0)
           (-30.0 30.0)
           (-30.0 30.0)
  end
  begin
     id 13 
     name thorax
     direction -0.0300198 0.999453 0.0138573   
     length 1.81778   
     axis 0 -0 0   XYZ
    dof rx ry rz
    limits (-20.0 45.0)
           (-30.0 30.0)
           (-30.0 30.0)
  end
  begin
     id 14 
     name lowerneck
     direction -0.0401726 0.999191 -0.00173647   
     length 2.10594   
     axis 0 -0 0   XYZ
    dof rx ry rz
    limits (-20.0 45.0)
           (-30.0 30.0)
           (-30.0 30.0)
  end
  begin
     id 15 
     name upperneck
     direction 0.0119835 0.998501 0.0534085   
     length 2.07325   
     axis 0 -0 0   XYZ
    dof rx ry rz
    limits (-20.0 45.0)
           (-30.0 30.0)
           (-30.0 30.0)
  end
  begin
     id 16
     name head
     direction 0.00628309 0.999826 0.0175921  
     length 2.15096  
     axis 0 -0 0   XYZ
    dof rx ry rz
    limits (-20.0 45.0)
           (-30.0 30.0)
           (-30.0 30.0)
  end
  begin
     id 17 
     name lclavicle
     direction 0.895501 0.429681 -0.115981  
     length 4.18092  
     axis 0 -0 0   XYZ
    dof ry rz
    limits (-20.0 10.0)
           (0.0 20.0)
  end
  begin
     id 18 
     name lhumerus
     direction 1 -4.48961e-011 -3.38433e-028   
     length 5.77237   
     axis 180 -30 -90   XYZ
    dof rx ry rz
    limits (-60.0 90.0)
           (-90.0 90.0)
           (-90.0 90.0)
  end
  begin
     id 19
     name lradius
     direction 1 -4.4901e-011 1.11983e-026   
     length 2.91878   
     axis 180 -30 -90   XYZ
    dof rx
    limits (-10.0 170.0)
  end
  begin
     id 20
     name lwrist
     direction 1 -4.48934e-011 1.88176e-026   
     length 1.45939   
     axis -1.23311e-014 90 90   XYZ
    dof ry
    limits (-180.0 0.0)
 end
  begin
     id 21 
     name lhand
     direction 1 -4.4895e-011 3.76352e-026   
     length 1.06566   
     axis -2.40147e-014 90 90   XYZ
    dof rx rz
    limits (-90.0 90.0)
           (-45.0 45.0)
  end
  begin
     id 22 
     name lfingers
     direction 1 -4.49005e-011 7.52705e-026   
     length 0.859162   
     axis -4.80295e-014 90 90   XYZ
    dof rx
    limits (0.0 90.0)
  end
  begin
     id 23
     name lthumb
     direction 0.707107 -6.34885e-011 0.707107   
     length 1.23359   
     axis -90 45 -9.86935e-015   XYZ
    dof rx rz
    limits (-45.0 45.0)
           (-45.0 45.0)
  end
  begin
     id 24 
     name rclavicle
     direction -0.91006 0.40451 -0.0903492   
     length 4.23293  
     axis 0 -0 0   XYZ 
    dof ry rz
    limits (-10.0 20.0)
           (-20.0 0.0)
  end
  begin
     id 25 
     name rhumerus
     direction -1 -4.4897e-011 1.7415e-027  
     length 5.49854   
     axis 180 30 90   XYZ
    dof rx ry rz
    limits (-90.0 60.0)
           (-90.0 90.0)
           (-90.0 90.0)
  end
  begin
     id 26 
     name rradius
     direction -1 -4.48963e-011 1.21259e-026   
     length 3.1186   
     axis 180 30 90   XYZ
    dof rx
    limits (-10.0 170.0)
  end
  begin
     id 27 
     name rwrist
     direction -1 -4.48967e-011 1.88176e-026   
     length 1.5593   
     axis -1.23311e-014 -90 -90   XYZ
    dof ry
    limits (-180.0 0.0)
  end
  begin
     id 28
     name rhand
     direction -1 -4.4895e-011 3.76352e-026   
     length 0.71207   
     axis -2.40147e-014 -90 -90   XYZ
    dof rx rz
    limits (-90.0 90.0)
           (-45.0 45.0)
  end
  begin
     id 29
     name rfingers
     direction -1 -4.49005e-011 7.52705e-026   
     length 0.574089   
     axis -4.80295e-014 -90 -90   XYZ
    dof rx
    limits (0.0 90.0)
  end
  begin
     id 30
     name rthumb
     direction -0.707107 -6.34982e-011 0.707107   
     length 0.824281   
     axis -90 -45 9.86935e-015   XYZ
    dof rx rz
    limits (-45.0 45.0)
           (-45.0 45.0)
  end
:hierarchy
  begin
    root lhipjoint rhipjoint lowerback
    lhipjoint lfemur
    lfemur ltibia
    ltibia lfoot
    lfoot ltoes
    rhipjoint rfemur
    rfemur rtibia
    rtibia rfoot
    rfoot rtoes
    lowerback upperback
    upperback thorax
    thorax lowerneck lclavicle rclavicle
    lowerneck upperneck
    upperneck head
    lclavicle lhumerus
    lhumerus lradius
    lradius lwrist
    lwrist lhand lthumb
    lhand lfingers
    rclavicle rhumerus
    rhumerus rradius
    rradius rwrist
    rwrist rhand rthumb
    rhand rfingers
  end

#!OML:ASF C:\ViconDB\ViconDB\414\Spring2016\042216\male.ASF
:FULLY-SPECIFIED
:DEGREES
444
root 14.3462 15.6498 7.4382 -175.392 39.7275 -178.154
lowerback 9.68957 -3.53948 5.56975
upperback 1.73331 -4.05461 -0.503023
thorax -4.04262 -2.04307 -3.11282
lowerneck -4.68028 4.67197 -4.54411
upperneck -16.9996 6.97822 -3.68555
head -4.88163 4.31747 -0.699919
rclavicle 6.98231e-014 -5.96354e-015
rhumerus 27.9452 1.14814 -48.5766
rradius 98.2565
rwrist -23.2001
rhand 6.84112 -23.6093
rfingers 7.12502
rthumb 32.1244 -50.7903
lclavicle 6.98231e-014 -5.96354e-015
lhumerus 19.5187 2.38846 60.9188
lradius 99.6136
lwrist 31.7775
lhand -15.6951 13.711
lfingers 7.12502
lthumb 10.4943 43.429
rfemur -35.1754 -6.29975 26.5322
rtibia 64.5144
rfoot -31.2172 -9.13494
rtoes -2.78045
lfemur -35.0386 3.91965 -16.1525
ltibia 68.0588
lfoot -34.6528 9.6663
ltoes -24.3616
445
root 14.3684 15.9028 7.48781 -175.772 39.951 -178.075
lowerback 9.60152 -3.44404 5.44298
upperback 1.54112 -3.95242 -0.502659
thorax -4.17613 -2.00245 -3.05464
lowerneck -4.21445 4.85937 -4.51951
upperneck -15.9067 7.0967 -3.63112
head -4.5611 4.29331 -0.663251
rclavicle 1.93815e-014 7.15625e-015
rhumerus 29.4099 -1.70786 -47.4646
rradius 99.3199
rwrist -23.8142
rhand 7.04672 -23.549
rfingers 7.12502
rthumb 32.3202 -50.6902
lclavicle 1.93815e-014 7.15625e-015
lhumerus 20.4229 4.74622 59.2002
lradius 101.046
lwrist 31.3195
lhand -15.473 13.6566
lfingers 7.12502
lthumb 10.7085 43.3636
rfemur -32.9641 -6.49027 26.6512
rtibia 60.6345
rfoot -28.9888 -8.81383
rtoes -2.63065
lfemur -32.9461 4.74545 -15.8202
ltibia 64.4445
lfoot -32.7454 8.08329
ltoes -24.065
446
root 14.3985 16.1621 7.54843 -176.003 39.9976 -177.784
lowerback 9.61585 -3.38516 5.30624
upperback 1.22848 -3.89012 -0.428359
thorax -4.49114 -1.98769 -2.89856
lowerneck -3.57354 4.9588 -4.6248
upperneck -14.7266 7.10549 -3.34758
head -4.26401 4.20843 -0.531722
rclavicle 6.82825e-014 -1.51076e-014
rhumerus 30.3424 -4.07097 -46.5261
rradius 100.34
rwrist -22.9295
rhand 6.86764 -23.1685
rfingers 7.12502
rthumb 32.1497 -50.3443
lclavicle 6.82825e-014 -1.51076e-014
lhumerus 21.0595 6.89312 57.6513
lradius 102.204
lwrist 29.9299
lhand -14.9003 13.6099
lfingers 7.12502
lthumb 11.2609 43.2877
rfemur -30.6178 -7.0353 27.0212
rtibia 56.4491
rfoot -26.5163 -8.2406
rtoes -2.29535
lfemur -30.9896 5.64759 -15.2409
ltibia 60.7143
lfoot -30.3393 6.09314
ltoes -23.6676
447
root 14.432 16.4129 7.60145 -176.327 40.1094 -177.553
lowerback 9.47279 -3.27399 5.14719
upperback 1.01718 -3.77311 -0.425372
thorax -4.61121 -1.93838 -2.82411
lowerneck -2.96404 5.04648 -4.64246
upperneck -13.553 7.10403 -3.1593
head -3.96197 4.12515 -0.448648
rclavicle 1.20016e-014 -3.97569e-016
rhumerus 30.9862 -6.49308 -45.7481
rradius 101.32
rwrist -22.7127
rhand 6.88664 -22.759
rfingers 7.12502
rthumb 32.1678 -49.9312
lclavicle 1.20016e-014 -3.97569e-016
lhumerus 21.7223 8.91781 56.5139
lradius 103.173
lwrist 28.3576
lhand -13.9842 12.9447
lfingers 7.12502
lthumb 12.1443 42.5722
rfemur -28.0692 -7.69338 27.2588
rtibia 52.0366
rfoot -23.8073 -7.37958
rtoes -2.00788
lfemur -28.7322 6.77253 -14.8131
ltibia 56.7278
lfoot -27.7074 4.56181
ltoes -23.8187
448
root 14.4738 16.6729 7.66543 -176.144 40.0337 -176.923
lowerback 9.22738 -3.22141 5.12444
upperback 0.655767 -3.71892 -0.285928
thorax -4.83716 -1.92749 -2.67432
lowerneck -2.36844 5.17014 -4.75238
upperneck -12.3013 7.16835 -2.86757
head -3.64549 4.07596 -0.318906
rclavicle 1.04859e-013 4.77083e-015
rhumerus 31.2969 -8.38719 -45.4495
rradius 102.354
rwrist -21.7583
rhand 7.05668 -22.4143
rfingers 7.12502
rthumb 32.3296 -49.5536
lclavicle 1.04859e-013 4.77083e-015
lhumerus 22.0734 10.8035 55.5471
lradius 104.138
lwrist 26.4252
lhand -13.2637 12.392
lfingers 7.12502
lthumb 12.839 41.9772
rfemur -25.7038 -8.32795 27.8765
rtibia 47.4004
rfoot -20.8822 -6.48748
rtoes -1.42635
lfemur -26.8962 7.83828 -13.9624
ltibia 52.7432
lfoot -24.6182 2.54222
ltoes -23.6052
449
root 14.5198 16.9462 7.72404 -176.262 39.8273 -176.874
lowerback 8.33122 -3.12963 4.71641
upperback 0.566537 -3.69784 -0.308887
thorax -4.4016 -1.90822 -2.51572
lowerneck -1.69399 5.15134 -4.86374
upperneck -11.5206 7.04853 -2.76991
head -3.50467 3.9719 -0.265666
rclavicle 9.59385e-014 -1.19271e-015
rhumerus 31.455 -10.4988 -45.2135
rradius 103.506
rwrist -20.8432
rhand 7.15979 -22.2331
rfingers 7.12502
rthumb 32.4278 -49.3523
lclavicle 9.59385e-014 -1.19271e-015
lhumerus 22.7184 12.5784 54.9519
lradius 105.178
lwrist 24.9087
lhand -12.7066 12.08
lfingers 7.12502
lthumb 13.376 41.6306
rfemur -23.3794 -9.34423 27.9827
rtibia 42.6807
rfoot -17.3723 -5.40477
rtoes -1.68417
lfemur -25.062 8.77874 -13.6178
ltibia 48.6071
lfoot -21.1116 0.438174
ltoes -23.6076
450
root 14.5467 17.2013 7.7842 -175.999 39.364 -176.478
lowerback 7.72289 -3.18424 4.765
upperback 0.283286 -3.80227 -0.262334
thorax -4.36499 -1.97029 -2.50297
lowerneck -1.10281 5.23804 -4.96393
upperneck -10.5205 7.08348 -2.5822
head -3.27926 3.93339 -0.182036
rclavicle -6.79098e-014 4.57205e-015
rhumerus 31.3041 -12.2539 -44.9688
rradius 104.886
rwrist -20.0685
rhand 7.56877 -22.2059
rfingers 7.12502
rthumb 32.8169 -49.2446
lclavicle -6.79098e-014 4.57205e-015
lhumerus 22.9503 14.1821 54.3239
lradius 106.299
lwrist 23.1507
lhand -12.0986 12.1949
lfingers 7.12502
lthumb 13.962 41.7061
rfemur -21.4687 -10.8205 28.3623
rtibia 38.0098
rfoot -12.9811 -4.00459
rtoes -2.39559
lfemur -23.6588 9.36572 -13.0059
ltibia 44.4833
lfoot -16.9878 -1.69768
ltoes -23.84
451
root 14.5727 17.472 7.84143 -175.834 38.7002 -176.26
lowerback 7.06024 -3.2546 4.85138
upperback 0.0684151 -3.93334 -0.348774
thorax -4.24015 -2.04429 -2.65284
lowerneck -0.4868 5.19184 -5.17353
upperneck -9.85877 6.95749 -2.32234
head -3.18375 3.8348 -0.0634024
rclavicle -1.72943e-014 0
rhumerus 30.7057 -13.9973 -44.8949
rradius 106.392
rwrist -19.4641
rhand 7.44997 -22.0985
rfingers 7.12502
rthumb 32.7039 -49.1607
lclavicle -1.72943e-014 0
lhumerus 23.0961 15.4949 53.8116
lradius 107.585
lwrist 21.7257
lhand -12.9481 12.0876
lfingers 7.12502
lthumb 13.1432 41.6534
rfemur -19.7004 -12.4971 28.5202
rtibia 33.4693
rfoot -7.96652 -2.5977
rtoes -3.71699
lfemur -22.288 9.37059 -12.4743
ltibia 40.2412
lfoot -12.0221 -3.68221
ltoes -23.5221
452
root 14.5929 17.7563 7.90794 -175.446 38.0278 -176.031
lowerback 6.42908 -3.34774 4.78141
upperback -0.0779 -4.09651 -0.277447
thorax -4.04156 -2.12479 -2.55129
lowerneck -0.405252 5.16679 -5.68043
upperneck -9.2533 6.90953 -2.07659
head -3.02293 3.79466 0.112197
rclavicle 5.66536e-014 4.37326e-015
rhumerus 30.3084 -15.8803 -44.7181
rradius 108.047
rwrist -19.529
rhand 7.42516 -22.1255
rfingers 7.12502
rthumb 32.6803 -49.1926
lclavicle 5.66536e-014 4.37326e-015
lhumerus 23.0941 17.1 53.4708
lradius 109.245
lwrist 21.2843
lhand -13.4992 12.324
lfingers 7.12502
lthumb 12.6119 41.9233
rfemur -18.3502 -13.8247 28.6961
rtibia 29.1547
rfoot -2.53418 -1.79078
rtoes -4.95358
lfemur -21.3862 8.93562 -11.8618
ltibia 36.2003
lfoot -6.23798 -5.07009
ltoes -22.8187
453
root 14.6132 18.0503 7.97117 -174.874 37.6363 -175.7
lowerback 5.69896 -3.30857 4.8064
upperback -0.358114 -4.08225 -0.264438
thorax -3.92236 -2.1246 -2.58506
lowerneck 0.433515 5.14931 -6.09334
upperneck -9.06826 6.80876 -1.77727
head -3.14518 3.73422 0.258836
rclavicle 1.67575e-013 -1.98785e-015
rhumerus 29.1756 -17.559 -44.2576
rradius 109.893
rwrist -19.7218
rhand 6.96931 -22.1372
rfingers 7.12502
rthumb 32.2465 -49.2934
lclavicle 1.67575e-013 -1.98785e-015
lhumerus 22.6319 18.3511 52.9065
lradius 111.135
lwrist 21.5413
lhand -14.2686 12.3466
lfingers 7.12502
lthumb 11.8701 41.9902
rfemur -17.2828 -14.0672 28.8341
rtibia 24.9884
rfoot 3.61081 -2.02827
rtoes -7.38063
lfemur -20.8997 7.90692 -11.036
ltibia 32.7235
lfoot 0.311542 -5.05726
ltoes -21.4099
454
root 14.6265 18.3539 8.03542 -174.04 37.3326 -175.264
lowerback 4.87476 -3.28203 4.93918
upperback -0.510855 -4.08062 -0.196104
thorax -3.62178 -2.12459 -2.63045
lowerneck 0.597436 5.18328 -6.58464
upperneck -8.7748 6.83748 -1.48077
head -3.11119 3.74115 0.436579
rclavicle -3.88873e-014 6.36111e-015
rhumerus 28.1455 -19.4171 -43.7491
rradius 111.858
rwrist -20.6708
rhand 6.09287 -22.3921
rfingers 7.12502
rthumb 31.4118 -49.7143
lclavicle -3.88873e-014 6.36111e-015
lhumerus 22.0645 20.0075 52.432
lradius 113.481
lwrist 23.1184
lhand -15.1193 12.4377
lfingers 7.12502
lthumb 11.0497 42.1269
rfemur -16.7363 -13.4546 28.9759
rtibia 21.2555
rfoot 10.3744 -3.57262
rtoes -7.67942
lfemur -21.2036 5.65445 -9.96726
ltibia 30.2676
lfoot 6.83499 -2.87288
ltoes -20.04
455
root 14.6328 18.6758 8.11091 -173.141 36.9965 -175.027
lowerback 4.09385 -3.28548 4.91386
upperback -0.753621 -4.12423 -0.126863
thorax -3.43103 -2.14719 -2.57794
lowerneck 0.561968 5.26555 -7.04441
upperneck -8.31822 6.94404 -1.27629
head -2.9819 3.7836 0.58548
rclavicle 8.52289e-015 -1.19271e-015
rhumerus 27.1308 -20.9861 -43.4216
rradius 113.616
rwrist -21.8481
rhand 5.20111 -22.4023
rfingers 7.12502
rthumb 30.5618 -49.8863
lclavicle 8.52289e-015 -1.19271e-015
lhumerus 21.2309 21.7232 51.7711
lradius 115.98
lwrist 26.2036
lhand -15.8696 12.5197
lfingers 7.12502
lthumb 10.326 42.2462
rfemur -16.6149 -9.08896 28.4071
rtibia 18.5132
rfoot 15.3477 -8.67583
rtoes -7.36263
lfemur -22.0387 1.63755 -8.85719
ltibia 28.8537
lfoot 11.49 0.837389
ltoes -11.5614
456
root 14.63 19.0103 8.19718 -172.002 36.566 -174.668
lowerback 3.1207 -3.39939 4.95247
upperback -0.924892 -4.32149 -0.029301
thorax -3.07294 -2.2415 -2.53622
lowerneck 0.207891 5.37316 -7.49244
upperneck -7.77976 7.12857 -0.869711
head -2.77948 3.85518 0.805215
rclavicle -2.05494e-014 -1.82882e-014
rhumerus 26.5492 -22.6586 -43.2248
rradius 115.196
rwrist -23.5466
rhand 4.29457 -22.7444
rfingers 7.12502
rthumb 29.6969 -50.3861
lclavicle -2.05494e-014 -1.82882e-014
lhumerus 19.9698 23.1625 50.5759
lradius 117.853
lwrist 25.6886
lhand -17.9064 11.8416
lfingers 7.12502
lthumb 8.36067 41.6561
rfemur -16.9668 -6.45293 28.1808
rtibia 16.7609
rfoot 17.139 -10.2468
rtoes 5.49587
lfemur -22.9817 -6.0179 -6.98347
ltibia 28.4139
lfoot 11.9816 8.46217
ltoes 5.82001
457
root 14.6145 19.3457 8.29342 -170.761 36.1115 -174.378
lowerback 2.13213 -3.5328 5.06286
upperback -1.20733 -4.54009 0.0324793
thorax -2.83169 -2.35142 -2.57154
lowerneck -0.00581109 5.44778 -7.95067
upperneck -7.24961 7.25487 -0.45642
head -2.60813 3.89792 1.02661
rclavicle -2.43263e-014 -1.23246e-014
rhumerus 25.813 -24.1234 -43.2939
rradius 116.747
rwrist -25.3565
rhand 3.51619 -23.0823
rfingers 7.12502
rthumb 28.9537 -50.854
lclavicle -2.43263e-014 -1.23246e-014
lhumerus 18.3874 24.4092 49.3937
lradius 119.701
lwrist 25.7991
lhand -19.7177 10.8603
lfingers 7.12502
lthumb 6.61238 40.7371
rfemur -17.8108 -3.83882 28.0288
rtibia 15.8701
rfoot 13.8986 -9.16722
rtoes 2.08986
lfemur -23.6315 -8.44755 -6.0544
ltibia 28.6226
lfoot 8.08455 13.603
ltoes 5.07787
458
root 14.5886 19.6944 8.41396 -169.63 35.4785 -174.295
lowerback 1.2757 -3.61895 5.12131
upperback -1.39395 -4.69275 0.0911092
thorax -2.55637 -2.4243 -2.58499
lowerneck 0.120428 5.4885 -8.17074
upperneck -7.37974 7.28394 -0.675548
head -2.67675 3.93083 0.986188
rclavicle 1.4233e-013 8.34896e-015
rhumerus 25.3528 -25.7795 -43.4472
rradius 117.909
rwrist -27.1312
rhand 2.74794 -23.2058
rfingers 7.12502
rthumb 28.2197 -51.1011
lclavicle 1.4233e-013 8.34896e-015
lhumerus 17.4438 25.5757 48.9765
lradius 121.067
lwrist 26.3746
lhand -20.4804 9.87714
lfingers 7.12502
lthumb 5.87602 39.7757
rfemur -18.8053 -1.4571 27.8511
rtibia 15.4929
rfoot 11.5267 -8.9513
rtoes -3.88674
lfemur -25.0801 -10.5907 -5.39373
ltibia 29.1326
lfoot 2.93212 20.1254
ltoes -15.3781
